<?xml version="1.0" encoding="utf-8"?><svg viewBox="0 0 18 18" xmlns="http://www.w3.org/2000/svg" xmlns:xlink="http://www.w3.org/1999/xlink"><style>:root>svg{display:none}:root>svg:target{display:block}</style><svg viewBox="0 0 14 11" id="filter-check" xmlns="http://www.w3.org/2000/svg"><path d="M5 10.42l-5-5 1.41-1.41L5 7.59 12.59 0 14 1.42l-9 9z"/></svg><svg viewBox="0 0 16 16" id="instock" xmlns="http://www.w3.org/2000/svg"><path d="M8 16A8 8 0 108 0a8 8 0 000 16z"/><path d="M3.737 8.69a.35.35 0 01-.1-.228c0-.066.033-.164.1-.23l.47-.458a.33.33 0 01.47 0l.033.033 1.847 1.931a.165.165 0 00.234 0L11.29 5.19h.034a.33.33 0 01.47 0l.47.458a.31.31 0 010 .458l-5.37 5.433a.309.309 0 01-.236.098.309.309 0 01-.235-.098L3.804 8.79l-.067-.098z"/></svg><svg viewBox="0 0 18 18" id="login" xmlns="http://www.w3.org/2000/svg"><path d="M11.447 9.667a5.143 5.143 0 10-4.894 0C3.183 9.981 0 13.301 0 17.357h18c0-4.056-3.184-7.376-6.553-7.69z"/></svg><svg viewBox="0 0 11 16" id="marker" xmlns="http://www.w3.org/2000/svg"><path d="M5.393.25A5.389 5.389 0 000 5.643c0 3.213 3.405 7.642 4.807 9.33.309.37.871.37 1.18 0 1.394-1.688 4.799-6.117 4.799-9.33A5.389 5.389 0 005.393.25zm0 7.319a1.926 1.926 0 110-3.852 1.926 1.926 0 010 3.852z"/></svg><svg viewBox="0 0 14 15" id="message" xmlns="http://www.w3.org/2000/svg"><path fill-rule="evenodd" clip-rule="evenodd" d="M2.175 12.325H11.6a2.181 2.181 0 002.175-2.175V2.175A2.181 2.181 0 0011.6 0H2.175A2.181 2.181 0 000 2.175V14.5l2.175-2.175zm5.8-6.162a1.088 1.088 0 11-2.175 0 1.088 1.088 0 012.175 0zm2.538 1.087a1.088 1.088 0 100-2.175 1.088 1.088 0 000 2.175zM4.35 6.163a1.088 1.088 0 11-2.175 0 1.088 1.088 0 012.175 0z"/></svg></svg>