<svg width="16" height="16" viewBox="0 0 16 16" fill="none" xmlns="http://www.w3.org/2000/svg">
<path d="M8 16C12.4183 16 16 12.4183 16 8C16 3.58172 12.4183 0 8 0C3.58172 0 0 3.58172 0 8C0 12.4183 3.58172 16 8 16Z" fill="#328C71"/>
<path d="M3.73693 8.69082C3.66979 8.62537 3.63623 8.52718 3.63623 8.46173C3.63623 8.39627 3.66979 8.29809 3.73693 8.23264L4.20686 7.77446C4.34112 7.64355 4.54252 7.64355 4.67679 7.77446L4.71035 7.80718L6.55651 9.73809C6.62364 9.80355 6.72434 9.80355 6.79147 9.73809L11.2894 5.189H11.3229C11.4572 5.05809 11.6586 5.05809 11.7929 5.189L12.2628 5.64718C12.3971 5.77809 12.3971 5.97446 12.2628 6.10537L6.89217 11.5381C6.82505 11.6035 6.75791 11.6363 6.65721 11.6363C6.55651 11.6363 6.48938 11.6035 6.42224 11.5381L3.80406 8.789L3.73693 8.69082Z" fill="white"/>
</svg>
