<svg width="11" height="16" viewBox="0 0 11 16" fill="none" xmlns="http://www.w3.org/2000/svg">
<path d="M5.39291 0.25C2.4114 0.25 0 2.6614 0 5.64291C0 8.85555 3.40524 13.2854 4.8074 14.9726C5.11556 15.3424 5.67797 15.3424 5.98613 14.9726C7.38059 13.2854 10.7858 8.85555 10.7858 5.64291C10.7858 2.6614 8.37442 0.25 5.39291 0.25ZM5.39291 7.56895C4.88209 7.56895 4.3922 7.36603 4.031 7.00483C3.66979 6.64363 3.46687 6.15373 3.46687 5.64291C3.46687 5.13209 3.66979 4.6422 4.031 4.281C4.3922 3.91979 4.88209 3.71687 5.39291 3.71687C5.90373 3.71687 6.39363 3.91979 6.75483 4.281C7.11603 4.6422 7.31895 5.13209 7.31895 5.64291C7.31895 6.15373 7.11603 6.64363 6.75483 7.00483C6.39363 7.36603 5.90373 7.56895 5.39291 7.56895Z" fill="#6E6E6E"/>
</svg>
