<svg width="14" height="15" viewBox="0 0 14 15" fill="none" xmlns="http://www.w3.org/2000/svg">
<path fill-rule="evenodd" clip-rule="evenodd" d="M2.175 12.325H11.6C12.7962 12.325 13.775 11.3463 13.775 10.15V2.175C13.775 0.97875 12.7962 0 11.6 0H2.175C0.97875 0 0 0.97875 0 2.175V14.5L2.175 12.325ZM7.97539 6.1627C7.97539 6.7633 7.4885 7.2502 6.88789 7.2502C6.28728 7.2502 5.80039 6.7633 5.80039 6.1627C5.80039 5.56209 6.28728 5.0752 6.88789 5.0752C7.4885 5.0752 7.97539 5.56209 7.97539 6.1627ZM10.5129 7.2502C11.1135 7.2502 11.6004 6.7633 11.6004 6.1627C11.6004 5.56209 11.1135 5.0752 10.5129 5.0752C9.91228 5.0752 9.42539 5.56209 9.42539 6.1627C9.42539 6.7633 9.91228 7.2502 10.5129 7.2502ZM4.35 6.1627C4.35 6.7633 3.86311 7.2502 3.2625 7.2502C2.66189 7.2502 2.175 6.7633 2.175 6.1627C2.175 5.56209 2.66189 5.0752 3.2625 5.0752C3.86311 5.0752 4.35 5.56209 4.35 6.1627Z" fill="white"/>
</svg>
